<?xml version="1.0" encoding="UTF-8"?>
<!DOCTYPE svg PUBLIC "-//W3C//DTD SVG 1.1//EN" "http://www.w3.org/Graphics/SVG/1.1/DTD/svg11.dtd">
<!-- Creator: CorelDRAW 2026 -->
<svg xmlns="http://www.w3.org/2000/svg" xml:space="preserve" width="86.6986mm" height="86.6986mm" version="1.1" style="shape-rendering:geometricPrecision; text-rendering:geometricPrecision; image-rendering:optimizeQuality; fill-rule:evenodd; clip-rule:evenodd"
viewBox="0 0 8669.86 8669.86"
 xmlns:xlink="http://www.w3.org/1999/xlink"
 xmlns:xodm="http://www.corel.com/coreldraw/odm/2003">
 <defs>
  <style type="text/css">
   <![CDATA[
    .fil0 {fill:none}
    .fil1 {fill:white}
   ]]>
  </style>
 </defs>
 <g id="Слой_x0020_1">
  <metadata id="CorelCorpID_0Corel-Layer"/>
  <line class="fil0" x1="2168.45" y1="4334.93" x2="6501.42" y2= "4334.93" />
  <path class="fil1" d="M434.41 4334.92l1708.15 0 6.44 0 6.45 0 6.43 0 6.44 0 6.43 0 6.6 0 6.43 0 6.44 0c121.01,0.54 245.57,4.39 399.31,32.76 175.57,32.76 389.34,98.39 619.84,322.29 230.49,223.94 477.97,606.39 714.1,1039.42 236.09,432.9 461.13,916.37 753.56,1261.85 292.29,345.46 652.14,552.79 971.16,656.51 318.89,103.62 596.92,103.62 875,103.62l0 -3416.45 0 -3416.43 1708.26 0 0 3416.43 -1708.26 0 -6.47 0 -6.45 0 -6.44 0 -6.43 0 -6.44 0 -6.59 0 -6.43 0 -6.44 0c-120.98,-0.53 -245.55,-4.37 -399.31,-32.76 -175.54,-32.76 -389.34,-98.39 -619.84,-322.29 -230.49,-223.93 -477.97,-606.38 -714.07,-1039.41 -236.13,-432.91 -461.13,-916.37 -753.56,-1261.86 -292.32,-345.45 -652.17,-552.79 -971.19,-656.51 -318.86,-103.6 -596.94,-103.6 -874.97,-103.6l0 3416.43 0 3416.45 -1708.15 0 0 -3416.45z"/>
 </g>
</svg>
