<?xml version="1.0" encoding="UTF-8"?>
<!DOCTYPE svg PUBLIC "-//W3C//DTD SVG 1.1//EN" "http://www.w3.org/Graphics/SVG/1.1/DTD/svg11.dtd">
<!-- Creator: CorelDRAW 2026 -->
<svg xmlns="http://www.w3.org/2000/svg" xml:space="preserve" width="313.267mm" height="86.6986mm" version="1.1" style="shape-rendering:geometricPrecision; text-rendering:geometricPrecision; image-rendering:optimizeQuality; fill-rule:evenodd; clip-rule:evenodd"
viewBox="0 0 31326.66 8669.86"
 xmlns:xlink="http://www.w3.org/1999/xlink"
 xmlns:xodm="http://www.corel.com/coreldraw/odm/2003">
 <defs>
  <style type="text/css">
   <![CDATA[
    .fil0 {fill:white}
   ]]>
  </style>
 </defs>
 <g id="Слой_x0020_1">
  <metadata id="CorelCorpID_0Corel-Layer"/>
  <g>
   <path class="fil0" d="M1693.33 4354.97l1085.6 0 4.09 0 4.1 0 4.09 0 4.09 0 4.09 0 4.19 0 4.09 0 4.09 0c76.91,0.34 156.07,2.79 253.78,20.82 111.58,20.82 247.44,62.53 393.93,204.83 146.49,142.32 303.77,385.38 453.84,660.59 150.05,275.13 293.07,582.39 478.92,801.96 185.76,219.55 414.46,351.32 617.21,417.24 202.67,65.85 379.37,65.85 556.1,65.85l0 -2171.29 0 -2171.28 1085.67 0 0 2171.28 -1085.67 0 -4.11 0 -4.1 0 -4.09 0 -4.09 0 -4.09 0 -4.19 0 -4.09 0 -4.09 0c-76.89,-0.34 -156.06,-2.78 -253.78,-20.82 -111.56,-20.82 -247.44,-62.53 -393.93,-204.83 -146.49,-142.32 -303.77,-385.38 -453.82,-660.59 -150.07,-275.13 -293.07,-582.39 -478.92,-801.96 -185.78,-219.55 -414.48,-351.32 -617.23,-417.24 -202.65,-65.84 -379.38,-65.84 -556.08,-65.84l0 2171.28 0 2171.29 -1085.6 0 0 -2171.29zm26662.77 -489.6c409.04,0 724.18,100.17 945.4,300.51 221.22,200.36 331.83,492.54 331.83,876.54 0,467.48 -161.74,831.66 -485.24,1092.53 -323.47,260.87 -777.39,391.31 -1361.75,391.31l-751.3 0c-730.45,0 -1210.46,-146.09 -1440.03,-438.27l0 -1289.75c62.61,229.57 203.49,418.44 422.62,566.61 219.14,148.18 516.53,222.26 892.19,222.26l1784.36 0 0 -782.62 -1821.94 0c-409.04,0 -724.18,-101.21 -945.4,-303.64 -221.22,-202.44 -331.83,-491.48 -331.83,-867.14 0,-454.96 159.65,-817.06 478.96,-1086.28 319.31,-269.22 733.58,-403.83 1242.81,-403.83l688.7 0c279.66,0 565.57,41.75 857.75,125.24 292.18,83.46 486.27,185.73 582.25,306.78l0 1289.75c-62.6,-229.58 -203.46,-417.4 -422.6,-563.49 -219.13,-146.09 -516.52,-219.13 -892.19,-219.13l-1596.53 0 0 782.62 1821.94 0zm-3263.31 -1721.77l0 3318.3c0,709.57 -354.77,1064.36 -1064.35,1064.36l-532.19 0c-709.57,0 -1064.36,-354.79 -1064.36,-1064.36l0 -3318.3 939.15 0 0 3443.51 782.62 0 0 -3443.51 939.13 0zm-3125.56 945.4l-1245.91 1245.93 1245.91 1245.93 0 945.4 -381.91 0 -1527.66 -1527.67 -1533.94 1527.67 -381.92 0 0 -945.4 1245.94 -1245.93 -1245.94 -1245.93 0 -945.4 381.92 0 1533.94 1527.67 1527.66 -1527.67 381.91 0 0 945.4zm-7420.55 776.37l3130.48 0 0 939.12 -3130.48 0 0 782.62 3130.48 0 0 939.15 -3067.87 0c-342.25,0 -594.78,-108.53 -757.56,-325.58 -162.79,-217.03 -244.17,-550.96 -244.17,-1001.73 0,-442.44 72,-772.18 215.99,-989.23 144,-217.06 368.35,-331.83 673.05,-344.35 -304.7,-4.19 -529.05,-75.13 -673.05,-212.89 -143.99,-137.73 -215.99,-344.35 -215.99,-619.82 0,-300.53 81.38,-523.83 244.17,-669.92 162.78,-146.09 415.31,-219.14 757.56,-219.14l3067.87 0 0 939.15 -3130.48 0 0 782.62zm-1447.6 -1721.77l0 4382.66 -939.15 0 -3042.81 -3042.81 0 3042.81 -939.14 0 0 -4382.66 939.14 0 3042.81 3042.83 0 -3042.83 939.15 0zm-10287.32 2211.37l2753.78 0 -2753.78 0z"/>
  </g>
 </g>
</svg>
